name rise43.5482peak65.4966fall89.1036.mot
datacolumns 19
datarows 27
range 16.94495200000000 16.98826300000000
endheader
time	ground_force1_vx	ground_force1_vy	ground_force1_vz	ground_force1_px	ground_force1_py	ground_force1_pz	ground_force2_vx	ground_force2_vy	ground_force2_vz	ground_force2_px	ground_force2_py	ground_force2_pz	ground_torque1_x	ground_torque1_y	ground_torque1_z	ground_torque2_x	ground_torque2_y	ground_torque2_z	
16.94495200000000	62.37783500000000	811.50622299999998	57.67559900000000	0.31079300000000	0.00000000000000	0.12925800000000	0.00000000000000	0.00000000000000	0.00000000000000	0.00000000000000	0.00000000000000	0.00000000000000	0.00000000000000	18.02489200000000	0.00000000000000	0.00000000000000	0.00000000000000	0.00000000000000	
16.94659600000000	61.92426200000000	814.17065100000002	57.72449700000000	0.31030900000000	0.00000000000000	0.12918800000000	0.00000000000000	0.00000000000000	0.00000000000000	0.00000000000000	0.00000000000000	0.00000000000000	0.00000000000000	18.07598600000000	0.00000000000000	0.00000000000000	0.00000000000000	0.00000000000000	
16.94826600000000	61.46390700000000	816.62037599999996	57.77440900000000	0.30982200000000	0.00000000000000	0.12912000000000	0.00000000000000	0.00000000000000	0.00000000000000	0.00000000000000	0.00000000000000	0.00000000000000	0.00000000000000	18.13006400000000	0.00000000000000	0.00000000000000	0.00000000000000	0.00000000000000	
16.94993600000000	60.99694300000000	818.85548700000004	57.82490500000000	0.30933100000000	0.00000000000000	0.12905400000000	0.00000000000000	0.00000000000000	0.00000000000000	0.00000000000000	0.00000000000000	0.00000000000000	0.00000000000000	18.18673500000000	0.00000000000000	0.00000000000000	0.00000000000000	0.00000000000000	
16.95159400000000	60.52351100000000	820.87644499999999	57.87549900000000	0.30883500000000	0.00000000000000	0.12899000000000	0.00000000000000	0.00000000000000	0.00000000000000	0.00000000000000	0.00000000000000	0.00000000000000	0.00000000000000	18.24558100000000	0.00000000000000	0.00000000000000	0.00000000000000	0.00000000000000	
16.95326000000000	60.04372400000000	822.68409199999996	57.92565100000000	0.30833200000000	0.00000000000000	0.12892900000000	0.00000000000000	0.00000000000000	0.00000000000000	0.00000000000000	0.00000000000000	0.00000000000000	0.00000000000000	18.30615700000000	0.00000000000000	0.00000000000000	0.00000000000000	0.00000000000000	
16.95493000000000	59.55766800000000	824.27964499999996	57.97478200000000	0.30781900000000	0.00000000000000	0.12887000000000	0.00000000000000	0.00000000000000	0.00000000000000	0.00000000000000	0.00000000000000	0.00000000000000	0.00000000000000	18.36799600000000	0.00000000000000	0.00000000000000	0.00000000000000	0.00000000000000	
16.95660000000000	59.06541000000000	825.66469700000005	58.02227300000000	0.30729600000000	0.00000000000000	0.12881400000000	0.00000000000000	0.00000000000000	0.00000000000000	0.00000000000000	0.00000000000000	0.00000000000000	0.00000000000000	18.43061400000000	0.00000000000000	0.00000000000000	0.00000000000000	0.00000000000000	
16.95826500000000	58.56699600000000	826.84121000000005	58.06747700000000	0.30676100000000	0.00000000000000	0.12875900000000	0.00000000000000	0.00000000000000	0.00000000000000	0.00000000000000	0.00000000000000	0.00000000000000	0.00000000000000	18.49351100000000	0.00000000000000	0.00000000000000	0.00000000000000	0.00000000000000	
16.95994400000000	58.06246100000000	827.81151699999998	58.10972200000000	0.30621100000000	0.00000000000000	0.12870700000000	0.00000000000000	0.00000000000000	0.00000000000000	0.00000000000000	0.00000000000000	0.00000000000000	0.00000000000000	18.55617900000000	0.00000000000000	0.00000000000000	0.00000000000000	0.00000000000000	
16.96159700000000	57.55183000000000	828.57831099999999	58.14832200000000	0.30564600000000	0.00000000000000	0.12865700000000	0.00000000000000	0.00000000000000	0.00000000000000	0.00000000000000	0.00000000000000	0.00000000000000	0.00000000000000	18.61810300000000	0.00000000000000	0.00000000000000	0.00000000000000	0.00000000000000	
16.96326000000000	57.03512200000000	829.14463999999998	58.18258200000000	0.30506400000000	0.00000000000000	0.12861000000000	0.00000000000000	0.00000000000000	0.00000000000000	0.00000000000000	0.00000000000000	0.00000000000000	0.00000000000000	18.67876500000000	0.00000000000000	0.00000000000000	0.00000000000000	0.00000000000000	
16.96493300000000	56.51235200000000	829.51389800000004	58.21180200000000	0.30446300000000	0.00000000000000	0.12856400000000	0.00000000000000	0.00000000000000	0.00000000000000	0.00000000000000	0.00000000000000	0.00000000000000	0.00000000000000	18.73765100000000	0.00000000000000	0.00000000000000	0.00000000000000	0.00000000000000	
16.96660200000000	55.98353900000000	829.68981599999995	58.23529100000000	0.30384300000000	0.00000000000000	0.12852100000000	0.00000000000000	0.00000000000000	0.00000000000000	0.00000000000000	0.00000000000000	0.00000000000000	0.00000000000000	18.79425100000000	0.00000000000000	0.00000000000000	0.00000000000000	0.00000000000000	
16.96826200000000	55.44870500000000	829.67645300000004	58.25236400000000	0.30320100000000	0.00000000000000	0.12848000000000	0.00000000000000	0.00000000000000	0.00000000000000	0.00000000000000	0.00000000000000	0.00000000000000	0.00000000000000	18.84806600000000	0.00000000000000	0.00000000000000	0.00000000000000	0.00000000000000	
16.96993500000000	54.90788000000000	829.47818299999994	58.26235600000000	0.30253700000000	0.00000000000000	0.12844100000000	0.00000000000000	0.00000000000000	0.00000000000000	0.00000000000000	0.00000000000000	0.00000000000000	0.00000000000000	18.89861000000000	0.00000000000000	0.00000000000000	0.00000000000000	0.00000000000000	
16.97159400000000	54.36110700000000	829.09968100000003	58.26462300000000	0.30184900000000	0.00000000000000	0.12840400000000	0.00000000000000	0.00000000000000	0.00000000000000	0.00000000000000	0.00000000000000	0.00000000000000	0.00000000000000	18.94541100000000	0.00000000000000	0.00000000000000	0.00000000000000	0.00000000000000	
16.97326800000000	53.80844100000000	828.54591200000004	58.25855100000000	0.30113700000000	0.00000000000000	0.12837000000000	0.00000000000000	0.00000000000000	0.00000000000000	0.00000000000000	0.00000000000000	0.00000000000000	0.00000000000000	18.98802100000000	0.00000000000000	0.00000000000000	0.00000000000000	0.00000000000000	
16.97494100000000	53.24995700000000	827.82211500000005	58.24355700000000	0.30039900000000	0.00000000000000	0.12833700000000	0.00000000000000	0.00000000000000	0.00000000000000	0.00000000000000	0.00000000000000	0.00000000000000	0.00000000000000	19.02601300000000	0.00000000000000	0.00000000000000	0.00000000000000	0.00000000000000	
16.97659900000000	52.68574700000000	826.93379000000004	58.21909900000000	0.29963400000000	0.00000000000000	0.12830600000000	0.00000000000000	0.00000000000000	0.00000000000000	0.00000000000000	0.00000000000000	0.00000000000000	0.00000000000000	19.05898600000000	0.00000000000000	0.00000000000000	0.00000000000000	0.00000000000000	
16.97826400000000	52.11592600000000	825.88667799999996	58.18467400000000	0.29884200000000	0.00000000000000	0.12827800000000	0.00000000000000	0.00000000000000	0.00000000000000	0.00000000000000	0.00000000000000	0.00000000000000	0.00000000000000	19.08656800000000	0.00000000000000	0.00000000000000	0.00000000000000	0.00000000000000	
16.97993400000000	51.54063200000000	824.68674699999997	58.13982700000000	0.29802200000000	0.00000000000000	0.12825100000000	0.00000000000000	0.00000000000000	0.00000000000000	0.00000000000000	0.00000000000000	0.00000000000000	0.00000000000000	19.10841700000000	0.00000000000000	0.00000000000000	0.00000000000000	0.00000000000000	
16.98159800000000	50.96002900000000	823.34017300000005	58.08415200000000	0.29717400000000	0.00000000000000	0.12822500000000	0.00000000000000	0.00000000000000	0.00000000000000	0.00000000000000	0.00000000000000	0.00000000000000	0.00000000000000	19.12422500000000	0.00000000000000	0.00000000000000	0.00000000000000	0.00000000000000	
16.98327700000000	50.37430900000000	821.85332400000004	58.01729700000000	0.29629600000000	0.00000000000000	0.12820200000000	0.00000000000000	0.00000000000000	0.00000000000000	0.00000000000000	0.00000000000000	0.00000000000000	0.00000000000000	19.13371800000000	0.00000000000000	0.00000000000000	0.00000000000000	0.00000000000000	
16.98493900000000	49.78369000000000	820.23274000000004	57.93896300000000	0.29539000000000	0.00000000000000	0.12818000000000	0.00000000000000	0.00000000000000	0.00000000000000	0.00000000000000	0.00000000000000	0.00000000000000	0.00000000000000	19.13666000000000	0.00000000000000	0.00000000000000	0.00000000000000	0.00000000000000	
16.98659400000000	49.18842000000000	818.48511499999995	57.84890900000000	0.29445400000000	0.00000000000000	0.12816000000000	0.00000000000000	0.00000000000000	0.00000000000000	0.00000000000000	0.00000000000000	0.00000000000000	0.00000000000000	19.13285100000000	0.00000000000000	0.00000000000000	0.00000000000000	0.00000000000000	
16.98826300000000	48.58877700000000	816.61727699999994	57.74695200000000	0.29348900000000	0.00000000000000	0.12814100000000	0.00000000000000	0.00000000000000	0.00000000000000	0.00000000000000	0.00000000000000	0.00000000000000	0.00000000000000	19.12212900000000	0.00000000000000	0.00000000000000	0.00000000000000	0.00000000000000	
